<svg xmlns="http://www.w3.org/2000/svg" version="1.1" xmlns:xlink="http://www.w3.org/1999/xlink" xmlns:svgjs="http://svgjs.com/svgjs" width="62" height="47"><svg width="62" height="47" viewBox="0 0 62 47" fill="none" xmlns="http://www.w3.org/2000/svg">
<path d="M37.0204 0.0507812C36.0909 0.176546 35.1704 0.474535 34.3796 0.985573C33.643 1.46142 32.9975 2.071 32.5089 2.79931C30.1143 6.37235 31.9614 11.4227 36.1716 12.5259C36.9619 12.7329 37.815 12.7864 38.6237 12.6878C39.5197 12.5775 40.3921 12.2791 41.1702 11.8098C41.8775 11.3875 42.4873 10.8272 42.9796 10.1674C45.6958 6.52909 43.6577 1.1639 39.2368 0.155429C38.5426 -0.00271593 37.7277 -0.0449505 37.0204 0.0507812Z" fill="#EF7A19"></path>
<path d="M0.757307 18.4735H0.804464C1.34676 17.3322 2.36865 16.3026 3.25661 15.4232C3.97339 14.7193 4.8123 14.0539 5.70875 13.5827C6.42647 13.2054 7.1706 12.8892 7.97226 12.7226C11.5746 12.0013 14.2441 14.4847 16.5548 16.831C18.1397 18.4472 19.7048 20.0803 21.2704 21.7115C22.6153 23.109 23.9522 24.5271 25.3259 25.888C25.7272 26.2873 26.103 26.7088 26.5048 27.1081C26.642 27.2489 26.9132 27.4366 26.9665 27.6243C27.0056 27.7651 26.8302 27.8744 26.7401 27.9551C26.444 28.2203 26.1436 28.4812 25.8441 28.7506C24.5865 29.8449 23.3354 30.9561 22.0716 32.0486C20.7286 33.2115 19.3997 34.3917 18.0633 35.562C17.2055 36.3134 16.4218 37.1243 15.4225 37.6935C13.8036 38.6156 11.8504 39.0849 9.99953 39.2153C8.51928 39.312 6.9782 39.1604 5.51965 38.9188C4.9849 38.8301 4.45721 38.6522 3.91633 38.6053C4.0578 39.1215 4.42798 39.61 4.70903 40.06C5.4989 41.3271 6.47834 42.5017 7.59454 43.4937C11.9551 47.3685 18.0553 47.9598 23.3448 45.6242C25.5282 44.6598 27.5762 42.9709 29.428 41.4965C30.7013 40.4828 31.9471 39.3838 33.1063 38.2303C33.6061 37.7329 34.2606 37.1989 34.6153 36.5879H34.6624C34.9864 37.044 35.5103 37.411 35.9356 37.7737C36.7595 38.4767 37.5998 39.1562 38.4821 39.7855C42.8134 42.8761 48.2435 45.1113 53.5722 43.3454C55.1383 42.8292 56.5652 41.9855 57.8163 40.9179C58.2695 40.5312 58.8844 40.0455 59.1367 39.4974C58.3261 39.5443 57.5631 39.7559 56.7317 39.6771C54.5507 39.4706 52.5819 38.5724 50.6485 37.6203C50.4127 37.5001 50.1416 37.5264 49.894 37.4373C49.5403 37.3214 49.1838 37.1252 48.8566 36.9487C47.2839 36.1003 45.855 34.8544 44.5653 33.6333C43.6849 32.7999 42.8205 31.9571 41.9717 31.0974C41.8099 30.9346 41.1559 30.462 41.2271 30.21C41.3115 29.8989 42.0028 29.5554 42.2546 29.3672C43.2921 28.5905 44.3767 27.8763 45.5084 27.2362C47.5362 26.0874 49.6007 25.4319 51.8746 24.9795C54.2796 24.4999 56.8689 24.5022 59.1367 25.575C59.7922 25.8885 60.4288 26.3469 60.9244 26.8739C61.1885 27.1555 61.387 27.522 61.6831 27.7656C61.3276 26.0522 60.6287 24.4229 59.8073 22.8851C59.1721 21.6955 58.335 20.5632 57.3914 19.6002C56.7091 18.9057 55.9173 18.2863 55.0812 17.7794C49.7054 14.5508 43.1317 16.7072 38.0577 19.4449C36.8448 20.0995 35.5697 20.7795 34.4738 21.6181C34.2762 20.9963 33.8292 20.398 33.4929 19.8349C32.7974 18.6814 32.0613 17.55 31.2671 16.4561C27.9662 11.8666 23.5509 7.01058 17.8275 5.5868C13.5778 4.53657 9.12996 5.81111 5.94406 8.76425C4.33508 10.2617 3.10335 12.1716 2.20407 14.1567C1.61697 15.4523 0.874256 17.0422 0.756836 18.474L0.757307 18.4735Z" fill="#EF7A19"></path>
<path d="M8.538 12.6273C5.97976 12.9741 3.82235 14.5781 2.19969 16.5021C1.7003 17.0878 1.02313 17.7874 0.757171 18.52C0.379918 19.5815 0.427075 20.8387 0.324745 21.9457C0.0498223 24.7923 0.137062 27.7046 0.555812 30.5334C0.872704 32.6723 1.47442 34.8408 2.54912 36.7278C2.89006 37.3097 3.29985 38.1168 3.84263 38.5302C4.27882 38.8625 5.26958 38.8766 5.80292 38.9535C7.6227 39.2159 9.54291 39.3923 11.3674 39.0525C12.8755 38.7719 14.3854 38.3702 15.7058 37.5523C16.0067 37.366 16.7763 36.9976 16.8682 36.6334C16.9319 36.3608 16.1722 35.6799 15.9986 35.4603C15.1541 34.3927 14.426 33.2101 13.8318 31.9876C12.2624 28.7595 11.7447 25.1363 12.7486 21.6636C13.1867 20.1451 13.911 18.6927 14.8098 17.3933C15.0433 17.0648 15.2814 16.7363 15.537 16.4078C15.6355 16.2806 15.811 16.1154 15.7454 15.9385C15.5601 15.4387 14.7462 14.93 14.3383 14.6058C12.7467 13.3406 10.6327 12.3429 8.538 12.6264V12.6273Z" fill="#F59E1F"></path>
<path d="M51.922 24.9495C53.0061 28.2654 53.9026 32.9572 51.3891 35.8836C50.8789 36.4758 50.2795 36.8991 49.6113 37.2914C49.8471 37.526 50.1645 37.4678 50.4601 37.5565C50.7902 37.6579 51.1335 37.9014 51.4504 38.0539C53.2395 38.9442 55.2701 39.6847 57.2978 39.6847C57.8161 39.6847 58.779 39.7785 59.2063 39.4219C59.75 38.9657 60.1027 37.8451 60.363 37.1975C61.2495 34.9919 61.7202 32.7169 61.7777 30.3462C61.7975 29.5634 61.988 28.2565 61.5273 27.5775C59.5613 24.6844 55.0933 24.133 51.922 24.9495Z" fill="#F59E1F"></path>
</svg><style>@media (prefers-color-scheme: light) { :root { filter: none; } }
</style></svg>