<svg width="236" height="14" viewBox="0 0 236 14" fill="none" xmlns="http://www.w3.org/2000/svg">
<path d="M7.03838 10.8301H2.78238L1.99838 13.0001H0.654383L4.18238 3.29812H5.65238L9.16638 13.0001H7.82238L7.03838 10.8301ZM6.67438 9.79412L4.91038 4.86612L3.14638 9.79412H6.67438ZM16.478 11.9641H19.894V13.0001H15.204V3.24212H16.478V11.9641ZM27.0209 4.27812V7.54012H30.5769V8.59012H27.0209V11.9501H30.9969V13.0001H25.7469V3.22812H30.9969V4.27812H27.0209ZM29.5969 1.12812L26.6149 2.72412V1.77212L29.5969 0.0221214V1.12812ZM47.3227 3.31212V13.0001H46.0487V5.77612L42.8287 13.0001H41.9327L38.6987 5.76212V13.0001H37.4247V3.31212H38.7967L42.3807 11.3201L45.9647 3.31212H47.3227ZM65.2537 3.24212C66.3177 3.24212 67.237 3.44279 68.0117 3.84412C68.7957 4.23612 69.393 4.80079 69.8037 5.53812C70.2237 6.27545 70.4337 7.14346 70.4337 8.14212C70.4337 9.14079 70.2237 10.0088 69.8037 10.7461C69.393 11.4741 68.7957 12.0341 68.0117 12.4261C67.237 12.8088 66.3177 13.0001 65.2537 13.0001H62.2157V3.24212H65.2537ZM65.2537 11.9501C66.5137 11.9501 67.475 11.6188 68.1377 10.9561C68.8004 10.2841 69.1317 9.34612 69.1317 8.14212C69.1317 6.92879 68.7957 5.98146 68.1237 5.30012C67.461 4.61879 66.5044 4.27812 65.2537 4.27812H63.4897V11.9501H65.2537ZM77.8881 4.27812V7.54012H81.4441V8.59012H77.8881V11.9501H81.8641V13.0001H76.6141V3.22812H81.8641V4.27812H77.8881ZM97.7703 3.24212V9.41612C97.7703 10.2841 97.9803 10.9281 98.4003 11.3481C98.8296 11.7681 99.4223 11.9781 100.178 11.9781C100.925 11.9781 101.508 11.7681 101.928 11.3481C102.358 10.9281 102.572 10.2841 102.572 9.41612V3.24212H103.846V9.40212C103.846 10.2141 103.683 10.9001 103.356 11.4601C103.03 12.0108 102.586 12.4215 102.026 12.6921C101.476 12.9628 100.855 13.0981 100.164 13.0981C99.4736 13.0981 98.8483 12.9628 98.2883 12.6921C97.7376 12.4215 97.299 12.0108 96.9723 11.4601C96.655 10.9001 96.4963 10.2141 96.4963 9.40212V3.24212H97.7703ZM120.37 3.31212V13.0001H119.096V5.77612L115.876 13.0001H114.98L111.746 5.76212V13.0001H110.472V3.31212H111.844L115.428 11.3201L119.012 3.31212H120.37ZM132.798 10.8301H128.542L127.758 13.0001H126.414L129.942 3.29812H131.412L134.926 13.0001H133.582L132.798 10.8301ZM132.434 9.79412L130.67 4.86612L128.906 9.79412H132.434ZM150.47 4.27812V7.54012H154.026V8.59012H150.47V11.9501H154.446V13.0001H149.196V3.22812H154.446V4.27812H150.47ZM170.772 3.31212V13.0001H169.498V5.77612L166.278 13.0001H165.382L162.148 5.76212V13.0001H160.874V3.31212H162.246L165.83 11.3201L169.414 3.31212H170.772ZM183.956 6.09812C183.956 6.91012 183.676 7.58679 183.116 8.12812C182.566 8.66012 181.721 8.92612 180.582 8.92612H178.706V13.0001H177.432V3.24212H180.582C181.684 3.24212 182.519 3.50812 183.088 4.04012C183.667 4.57212 183.956 5.25812 183.956 6.09812ZM180.582 7.87612C181.292 7.87612 181.814 7.72212 182.15 7.41412C182.486 7.10612 182.654 6.66746 182.654 6.09812C182.654 4.89412 181.964 4.29212 180.582 4.29212H178.706V7.87612H180.582ZM195.178 13.0001L192.854 9.01012H191.314V13.0001H190.04V3.24212H193.19C193.927 3.24212 194.548 3.36812 195.052 3.62012C195.565 3.87212 195.948 4.21279 196.2 4.64212C196.452 5.07146 196.578 5.56146 196.578 6.11212C196.578 6.78412 196.382 7.37679 195.99 7.89012C195.607 8.40346 195.029 8.74412 194.254 8.91212L196.704 13.0001H195.178ZM191.314 7.98812H193.19C193.881 7.98812 194.399 7.82012 194.744 7.48412C195.089 7.13879 195.262 6.68146 195.262 6.11212C195.262 5.53346 195.089 5.08546 194.744 4.76812C194.408 4.45079 193.89 4.29212 193.19 4.29212H191.314V7.98812ZM204.331 4.27812V7.54012H207.887V8.59012H204.331V11.9501H208.307V13.0001H203.057V3.22812H208.307V4.27812H204.331ZM217.829 13.0981C217.185 13.0981 216.607 12.9861 216.093 12.7621C215.589 12.5288 215.193 12.2115 214.903 11.8101C214.614 11.3995 214.465 10.9281 214.455 10.3961H215.813C215.86 10.8535 216.047 11.2408 216.373 11.5581C216.709 11.8661 217.195 12.0201 217.829 12.0201C218.436 12.0201 218.912 11.8708 219.257 11.5721C219.612 11.2641 219.789 10.8721 219.789 10.3961C219.789 10.0228 219.687 9.71946 219.481 9.48612C219.276 9.25279 219.019 9.07546 218.711 8.95412C218.403 8.83279 217.988 8.70212 217.465 8.56212C216.821 8.39412 216.303 8.22612 215.911 8.05812C215.529 7.89012 215.197 7.62879 214.917 7.27412C214.647 6.91012 214.511 6.42479 214.511 5.81812C214.511 5.28612 214.647 4.81479 214.917 4.40412C215.188 3.99345 215.566 3.67612 216.051 3.45212C216.546 3.22812 217.111 3.11612 217.745 3.11612C218.66 3.11612 219.407 3.34479 219.985 3.80212C220.573 4.25946 220.905 4.86612 220.979 5.62212H219.579C219.533 5.24879 219.337 4.92212 218.991 4.64212C218.646 4.35279 218.189 4.20812 217.619 4.20812C217.087 4.20812 216.653 4.34812 216.317 4.62812C215.981 4.89879 215.813 5.28146 215.813 5.77612C215.813 6.13079 215.911 6.42012 216.107 6.64412C216.313 6.86812 216.56 7.04079 216.849 7.16212C217.148 7.27412 217.563 7.40479 218.095 7.55412C218.739 7.73146 219.257 7.90879 219.649 8.08612C220.041 8.25412 220.377 8.52012 220.657 8.88412C220.937 9.23879 221.077 9.72412 221.077 10.3401C221.077 10.8161 220.951 11.2641 220.699 11.6841C220.447 12.1041 220.074 12.4448 219.579 12.7061C219.085 12.9675 218.501 13.0981 217.829 13.0981ZM233.22 10.8301H228.964L228.18 13.0001H226.836L230.364 3.29812H231.834L235.348 13.0001H234.004L233.22 10.8301ZM232.856 9.79412L231.092 4.86612L229.328 9.79412H232.856Z" fill="#EF7A19"/>
</svg>
