<svg width="48" height="48" viewBox="0 0 48 48" fill="none" xmlns="http://www.w3.org/2000/svg">
<circle cx="24" cy="24" r="23" stroke="#0092BD" stroke-width="2"/>
<path d="M30.5469 21.5437H29.1728C28.7647 19.9634 27.9216 18.5292 26.7392 17.4041C25.5568 16.2791 24.0826 15.5082 22.4839 15.1792C20.8853 14.8501 19.2265 14.9761 17.6959 15.5427C16.1653 16.1093 14.8243 17.0939 13.8253 18.3846C12.8263 19.6753 12.2094 21.2203 12.0446 22.8441C11.8798 24.4679 12.1738 26.1053 12.8932 27.5704C13.6125 29.0354 14.7284 30.2693 16.114 31.1319C17.4995 31.9944 19.0993 32.451 20.7314 32.4498H30.5469C31.9932 32.4498 33.3802 31.8753 34.4028 30.8526C35.4255 29.83 36 28.443 36 26.9967C36 25.5505 35.4255 24.1635 34.4028 23.1408C33.3802 22.1182 31.9932 21.5437 30.5469 21.5437Z" stroke="#0092BD" stroke-width="2" stroke-linecap="round" stroke-linejoin="round"/>
</svg>
