<svg width="48" height="48" viewBox="0 0 48 48" fill="none" xmlns="http://www.w3.org/2000/svg">
<circle cx="24" cy="24" r="23" stroke="#0092BD" stroke-width="2"/>
<path d="M36 22.9029V24.0069C35.9985 26.5946 35.1606 29.1125 33.6112 31.1851C32.0618 33.2576 29.8839 34.7738 27.4024 35.5075C24.9209 36.2412 22.2687 36.1531 19.8414 35.2564C17.414 34.3596 15.3416 32.7022 13.9332 30.5313C12.5247 28.3605 11.8557 25.7925 12.026 23.2104C12.1963 20.6283 13.1966 18.1705 14.8779 16.2034C16.5592 14.2363 18.8313 12.8653 21.3554 12.295C23.8795 11.7248 26.5203 11.9857 28.884 13.0389" stroke="#0092BD" stroke-width="2" stroke-linecap="round" stroke-linejoin="round"/>
<path d="M35.9999 14.4069L23.9999 26.4189L20.3999 22.8189" stroke="#0092BD" stroke-width="2" stroke-linecap="round" stroke-linejoin="round"/>
</svg>
