<svg width="42" height="27" viewBox="0 0 42 27" fill="none" xmlns="http://www.w3.org/2000/svg">
<path d="M8.00112 25.7059C8.98168 24.1042 9.95558 21.7518 9.51227 19.1343C9.45302 18.783 9.16745 18.5135 8.81238 18.4748C4.35864 17.9865 1 14.2423 1 9.76563C1 4.93235 4.93961 1 9.7818 1C14.624 1 18.5636 4.93235 18.5636 9.76563C18.5636 9.7812 18.5641 9.79676 18.5654 9.81232C18.5725 9.93328 19.0946 21.1816 8.00111 25.7054L8.00112 25.7059Z" stroke="#0092BD" stroke-width="2" stroke-linejoin="round"/>
<path d="M30.4303 25.7059C31.4109 24.1042 32.3848 21.7518 31.9415 19.1343C31.8822 18.783 31.5967 18.5135 31.2416 18.4748C26.7878 17.9865 23.4292 14.2423 23.4292 9.76563C23.4292 4.93235 27.3688 1 32.211 1C37.0532 1 40.9928 4.93235 40.9928 9.76563C40.9928 9.7812 40.9933 9.79676 40.9946 9.81233C41.0017 9.93328 41.5238 21.1816 30.4303 25.7054L30.4303 25.7059Z" stroke="#0092BD" stroke-width="2" stroke-linejoin="round"/>
</svg>
