<svg width="33" height="32" viewBox="0 0 33 32" fill="none" xmlns="http://www.w3.org/2000/svg">
<circle cx="16.3145" cy="16" r="15.5" stroke="white"/>
<path d="M16.3123 13.3322C14.8433 13.3322 13.6446 14.531 13.6446 16C13.6446 17.469 14.8433 18.6678 16.3123 18.6678C17.7813 18.6678 18.9801 17.469 18.9801 16C18.9801 14.531 17.7813 13.3322 16.3123 13.3322ZM24.3136 16C24.3136 14.8953 24.3236 13.8005 24.2615 12.6978C24.1995 11.4169 23.9073 10.2801 22.9707 9.3435C22.0321 8.40487 20.8973 8.11467 19.6165 8.05263C18.5117 7.99059 17.417 8.0006 16.3143 8.0006C15.2096 8.0006 14.1149 7.99059 13.0121 8.05263C11.7313 8.11467 10.5945 8.40687 9.65793 9.3435C8.71931 10.2821 8.42912 11.4169 8.36708 12.6978C8.30504 13.8025 8.31505 14.8973 8.31505 16C8.31505 17.1027 8.30504 18.1995 8.36708 19.3022C8.42912 20.5831 8.72132 21.7199 9.65793 22.6565C10.5965 23.5951 11.7313 23.8853 13.0121 23.9474C14.1169 24.0094 15.2116 23.9994 16.3143 23.9994C17.419 23.9994 18.5137 24.0094 19.6165 23.9474C20.8973 23.8853 22.0341 23.5931 22.9707 22.6565C23.9093 21.7179 24.1995 20.5831 24.2615 19.3022C24.3256 18.1995 24.3136 17.1047 24.3136 16ZM16.3123 20.1048C14.0408 20.1048 12.2076 18.2715 12.2076 16C12.2076 13.7285 14.0408 11.8952 16.3123 11.8952C18.5838 11.8952 20.417 13.7285 20.417 16C20.417 18.2715 18.5838 20.1048 16.3123 20.1048ZM20.5851 12.6858C20.0548 12.6858 19.6265 12.2575 19.6265 11.7271C19.6265 11.1968 20.0548 10.7685 20.5851 10.7685C21.1155 10.7685 21.5437 11.1968 21.5437 11.7271C21.5439 11.853 21.5192 11.9778 21.4711 12.0942C21.423 12.2105 21.3524 12.3163 21.2633 12.4053C21.1743 12.4944 21.0685 12.565 20.9522 12.6131C20.8358 12.6612 20.711 12.6859 20.5851 12.6858Z" fill="white"/>
</svg>
