<svg width="33" height="32" viewBox="0 0 33 32" fill="none" xmlns="http://www.w3.org/2000/svg">
<circle cx="16.3145" cy="16" r="15.5" stroke="white"/>
<path d="M11.0919 24V13.2048H7.5249V24H11.0919ZM9.30884 11.73C10.5527 11.73 11.327 10.9011 11.327 9.8652C11.3038 8.80594 10.5528 8 9.33245 8C8.11233 8 7.31445 8.80595 7.31445 9.8652C7.31445 10.9011 8.08851 11.73 9.28556 11.73H9.30873H9.30884ZM13.0662 24H16.6331V17.9714C16.6331 17.6488 16.6563 17.3265 16.7505 17.0959C17.0084 16.4512 17.5953 15.7836 18.5806 15.7836C19.8713 15.7836 20.3877 16.7735 20.3877 18.2247V23.9999H23.9545V17.8101C23.9545 14.4942 22.1947 12.9514 19.8479 12.9514C17.9236 12.9514 17.0788 14.0333 16.6094 14.7702H16.6332V13.2046H13.0662C13.1131 14.2176 13.0662 23.9998 13.0662 23.9998L13.0662 24Z" fill="white"/>
</svg>
