<svg width="242" height="48" viewBox="0 0 242 48" fill="none" xmlns="http://www.w3.org/2000/svg">
<g clip-path="url(#clip0_1609_925)">
<path d="M39.5016 0.0517395C38.5133 0.180181 37.5345 0.484509 36.6936 1.00642C35.9104 1.49239 35.224 2.11494 34.7045 2.85875C32.1583 6.50781 34.1223 11.6656 38.599 12.7923C39.4394 13.0037 40.3465 13.0583 41.2064 12.9577C42.1591 12.845 43.0867 12.5402 43.9141 12.061C44.6662 11.6296 45.3146 11.0574 45.838 10.3836C48.7262 6.66789 46.5591 1.18854 41.8583 0.158614C41.1202 -0.00289579 40.2537 -0.0460289 39.5016 0.0517395Z" fill="#EF7A19"/>
<path d="M0.942396 18.8665H0.992538C1.56917 17.7009 2.65575 16.6495 3.59993 15.7513C4.36209 15.0324 5.25411 14.3529 6.20731 13.8717C6.97048 13.4864 7.76172 13.1633 8.61413 12.9932C12.4445 12.2566 15.283 14.7928 17.74 17.1891C19.4253 18.8397 21.0895 20.5075 22.7542 22.1734C24.1843 23.6006 25.6058 25.0489 27.0664 26.4388C27.4931 26.8466 27.8928 27.277 28.32 27.6848C28.4659 27.8286 28.7542 28.0203 28.8109 28.212C28.8525 28.3558 28.666 28.4675 28.5702 28.5499C28.2553 28.8207 27.9359 29.0871 27.6175 29.3622C26.2802 30.4799 24.9499 31.6147 23.6061 32.7304C22.1781 33.918 20.7651 35.1234 19.344 36.3186C18.432 37.0859 17.5986 37.9141 16.5361 38.4954C14.8147 39.4372 12.7378 39.9164 10.7697 40.0497C9.19578 40.1484 7.55714 39.9936 6.00625 39.7468C5.43763 39.6562 4.87654 39.4745 4.30141 39.4266C4.45184 39.9538 4.84546 40.4527 5.1443 40.9123C5.98418 42.2063 7.02563 43.4059 8.2125 44.419C12.8491 48.3763 19.3355 48.9801 24.96 46.5949C27.2815 45.61 29.4592 43.8852 31.4283 42.3793C32.7821 41.3441 34.1069 40.2217 35.3394 39.0437C35.8709 38.5357 36.5668 37.9903 36.9439 37.3663H36.9941C37.3385 37.8321 37.8956 38.2069 38.3479 38.5774C39.2239 39.2953 40.1174 39.9893 41.0556 40.632C45.6611 43.7883 51.435 46.071 57.101 44.2676C58.7662 43.7404 60.2835 42.8787 61.6138 41.7884C62.0957 41.3935 62.7495 40.8975 63.0178 40.3377C62.1558 40.3856 61.3446 40.6018 60.4605 40.5212C58.1415 40.3104 56.048 39.3931 53.9922 38.4207C53.7415 38.298 53.4532 38.3248 53.1899 38.2338C52.8139 38.1154 52.4348 37.915 52.0868 37.7348C50.4146 36.8684 48.8953 35.5959 47.5239 34.3489C46.5877 33.4977 45.6686 32.637 44.7661 31.759C44.5941 31.5927 43.8986 31.1101 43.9743 30.8527C44.0641 30.535 44.7992 30.1842 45.0669 29.992C46.1701 29.1988 47.3233 28.4694 48.5267 27.8157C50.6828 26.6424 52.8781 25.9729 55.2959 25.5109C57.8532 25.0211 60.6065 25.0235 63.0178 26.1191C63.7148 26.4392 64.3917 26.9075 64.9187 27.4457C65.1995 27.7332 65.4106 28.1075 65.7255 28.3563C65.3474 26.6065 64.6043 24.9425 63.7308 23.372C63.0554 22.1571 62.1654 21.0006 61.162 20.0172C60.4365 19.3079 59.5946 18.6753 58.7056 18.1577C52.9894 14.8604 45.9996 17.0626 40.6043 19.8586C39.3146 20.5271 37.9588 21.2216 36.7935 22.078C36.5834 21.443 36.108 20.8319 35.7505 20.2568C35.0109 19.0788 34.2282 17.9233 33.3838 16.8062C29.8739 12.119 25.1791 7.15969 19.0933 5.70562C14.5745 4.63305 9.84512 5.93471 6.45752 8.95067C4.74668 10.48 3.43696 12.4306 2.48075 14.4578C1.85649 15.781 1.06675 17.4048 0.941895 18.867L0.942396 18.8665Z" fill="#EF7A19"/>
<path d="M9.21595 12.8958C6.49575 13.25 4.20175 14.8881 2.47636 16.8531C1.94536 17.4512 1.22532 18.1657 0.942515 18.9139C0.541379 19.9979 0.591521 21.2819 0.482713 22.4124C0.190384 25.3196 0.283147 28.2939 0.728409 31.1829C1.06536 33.3673 1.70518 35.582 2.84791 37.5091C3.21044 38.1033 3.64618 38.9277 4.22331 39.3499C4.68712 39.6892 5.74061 39.7036 6.30772 39.7822C8.2427 40.0501 10.2845 40.2303 12.2245 39.8833C13.828 39.5967 15.4336 39.1865 16.8375 38.3511C17.1575 38.1608 17.9758 37.7846 18.0736 37.4127C18.1412 37.1343 17.3335 36.4389 17.1489 36.2146C16.2509 35.1243 15.4767 33.9165 14.8449 32.6681C13.1762 29.3713 12.6256 25.6709 13.6931 22.1244C14.159 20.5735 14.9291 19.0902 15.8848 17.7632C16.1331 17.4277 16.3863 17.0922 16.658 16.7567C16.7628 16.6269 16.9494 16.4582 16.8797 16.2775C16.6826 15.7671 15.8172 15.2475 15.3834 14.9164C13.6911 13.6243 11.4433 12.6054 9.21595 12.8949V12.8958Z" fill="#F59E1F"/>
<path d="M55.3466 25.4801C56.4994 28.8666 57.4526 33.6582 54.78 36.6468C54.2375 37.2516 53.6002 37.6839 52.8896 38.0846C53.1404 38.3242 53.4778 38.2648 53.7922 38.3554C54.1432 38.4589 54.5082 38.7076 54.8452 38.8634C56.7476 39.7725 58.9067 40.5288 61.0628 40.5288C61.6138 40.5288 62.6377 40.6246 63.092 40.2604C63.6702 39.7946 64.0452 38.6501 64.322 37.9887C65.2647 35.7362 65.7651 33.4128 65.8263 30.9916C65.8473 30.1922 66.0499 28.8575 65.56 28.164C63.4696 25.2094 58.7186 24.6462 55.3466 25.4801Z" fill="#F59E1F"/>
<path d="M185.013 37.546C183.703 36.5908 182.379 37.5795 181.053 37.8977C178.638 38.4776 175.666 38.0683 174.328 35.8321C172.929 33.4958 173.11 29.5213 175.337 27.6991C176.364 26.8585 177.727 26.5719 179.047 26.5408C179.934 26.5197 180.926 26.6874 181.755 26.986C182.757 27.3493 183.727 28.002 184.764 27.3119C186.067 26.4392 186.214 24.3664 184.964 23.394C183.711 22.4196 181.755 22.0856 180.201 21.9337C179.649 21.8695 179.046 21.7899 178.496 21.858C177.794 21.9461 177.091 21.9251 176.39 22.0415C174.404 22.3712 172.429 23.1318 170.924 24.434C166.522 28.2345 166.36 36.1039 170.674 40.0496C173.848 42.9501 179.282 43.6124 183.31 42.1008C184.039 41.8272 184.887 41.5027 185.399 40.9123C186.214 39.972 186.041 38.295 185.013 37.546ZM84.3291 26.3428C85.2517 26.3428 86.2846 26.4651 87.1872 26.247C88.536 25.9014 88.9542 24.1177 88.2858 23.036C87.7693 22.2011 86.8252 22.2212 85.9336 22.2212H76.8579C75.8405 22.2212 74.8522 22.2212 74.1001 22.988C73.0777 24.0443 73.4483 26.0299 73.4483 27.3493V37.7012C73.4483 39.0297 73.1103 40.8734 74.0906 41.9666C75.2032 43.2045 78.0012 43.102 78.7478 41.5353C79.1243 40.7445 79.014 39.8402 79.014 38.9952V34.4423H84.1285C84.9789 34.4423 85.9778 34.5861 86.786 34.2875C88.1278 33.7991 88.2687 31.5346 87.1872 30.7295C86.5007 30.2248 85.4919 30.3686 84.6801 30.3686H79.014V26.3428H84.3291ZM117.107 39.3307C116.984 38.6296 116.407 38.3962 115.718 38.4819C114.703 38.6118 113.48 38.908 112.736 37.9888C112.289 37.4367 112.308 36.6469 112.308 35.9759V32.1419C113.399 32.1419 114.983 32.4112 115.969 31.8768C117.136 31.2432 117.172 29.18 115.969 28.5628C114.961 28.0461 113.411 28.3078 112.308 28.3078C112.308 27.2577 112.538 25.9451 111.957 25.0009C111.089 23.5632 108.307 23.5286 107.344 24.9051C106.692 25.8444 106.943 27.2391 106.943 28.3078C105.623 28.3078 104.019 28.3164 103.884 29.9373H103.834C103.666 27.9723 100.642 27.4451 99.2714 28.6097C98.5474 29.2313 98.5193 30.1817 98.5193 31.0396V35.6884C98.5193 36.9224 98.2184 38.2136 96.8646 38.7077C95.4596 39.2128 94.351 38.3842 94.2156 37.0303C94.0481 35.3534 94.2071 33.5878 94.2071 31.9022C94.2071 31.0875 94.3219 30.1855 93.996 29.4101C93.2684 27.6848 90.1957 27.5055 89.1929 29.0746C88.5872 30.0231 88.7917 31.3664 88.7917 32.4294C88.7917 34.0225 88.7235 35.6404 88.8374 37.222C88.9422 38.6909 89.1553 40.1847 90.2102 41.3436C92.1407 43.4643 97.193 43.5055 98.6196 40.7685H98.6697C98.77 43.0392 102.724 43.5769 103.658 41.5832C104.148 40.536 103.935 39.1553 103.935 38.0367V30.8958H103.985C104.185 32.2157 105.905 32.1419 106.943 32.1419V35.9759C106.943 37.8369 106.993 39.8195 108.447 41.2477C109.934 42.7013 112.359 42.9491 114.364 42.7814C115.618 42.6759 116.801 42.3227 117.089 41.0081C117.159 40.6899 117.172 40.3736 117.172 40.0496C117.172 39.81 117.15 39.5708 117.107 39.3307ZM225.816 39.3307C225.692 38.6296 225.115 38.3962 224.426 38.4819C223.405 38.6118 222.192 38.9042 221.437 37.9888C220.998 37.4616 221.016 36.6665 221.016 36.0238V32.1419C222.105 32.1419 223.695 32.4131 224.677 31.8768C225.841 31.2409 225.878 29.1791 224.677 28.5628C223.669 28.0461 222.12 28.3078 221.016 28.3078C221.016 27.2577 221.246 25.9451 220.665 25.0009C219.796 23.5632 217.014 23.5296 216.052 24.9051C215.4 25.8444 215.651 27.2391 215.651 28.3078C214.648 28.3078 213.726 28.2441 212.944 28.9308C212.771 28.0202 211.68 27.8971 210.888 28.0001C209.1 28.2326 207.929 29.0296 207.027 30.5124C206.838 29.7561 206.842 29.1225 206.174 28.5561C204.959 27.541 202.552 27.9349 201.962 29.4101C201.511 30.5373 201.762 32.0081 201.762 33.1962V38.1326C201.762 38.9593 201.661 39.8579 201.783 40.6726C201.882 41.3302 202.139 41.9091 202.715 42.3136C203.932 43.1696 206.292 42.9433 206.951 41.5353C207.276 40.8408 207.227 40.0721 207.227 39.3307V36.1197C207.227 35.3308 207.177 34.5223 207.625 33.8193C208.289 32.7735 209.619 32.5732 210.787 32.4816C211.554 32.4294 212.59 32.2401 212.843 31.423C213.094 31.5941 213.308 31.8069 213.595 31.9348C214.221 32.2128 214.98 32.1419 215.651 32.1419V35.9759C215.651 37.845 215.701 39.8176 217.155 41.2477C218.651 42.7114 221.295 43.056 223.323 42.7531C224.509 42.5762 225.527 42.257 225.796 41.0081C225.865 40.6932 225.88 40.3702 225.88 40.0496C225.88 39.81 225.858 39.5708 225.816 39.3307Z" fill="white"/>
<path d="M132.416 32.4773C132.416 31.538 132.597 30.4022 132.261 29.5059C131.692 27.9929 129.385 27.5721 128.053 28.4209C127.082 29.0401 127.05 30.0863 127.05 31.0875C127.05 32.8013 127.265 34.6613 127.029 36.3593C126.842 37.7041 125.897 39.0432 124.293 38.8376C122.85 38.6598 122.738 37.3921 122.738 36.2635V31.9502C122.738 31.1354 122.838 30.2363 122.534 29.458C121.886 27.8362 119.178 27.5046 117.975 28.7391C117.346 29.3885 117.323 30.2512 117.323 31.0875V34.1547C117.323 37.1741 116.948 41.565 120.833 42.5897C121.452 42.7445 122.097 42.8293 122.738 42.8293C123.506 42.8293 124.217 42.7617 124.944 42.5082C125.947 42.1593 126.42 41.4241 127.201 40.8164C127.301 43.0219 131.147 43.5482 132.124 41.6791C132.632 40.7119 132.416 39.4266 132.416 38.3722V32.4773ZM240.121 30.6562C238.492 28.6025 235.333 27.6622 232.7 27.9924C231.076 28.1966 229.553 28.4545 228.187 29.3981C224.376 32.0278 224.293 38.191 227.786 41.0901C229.776 42.7421 232.687 43.0689 235.207 42.72C236.962 42.4813 238.676 41.7284 239.855 40.433C242.211 37.8455 242.287 33.3726 240.121 30.6562ZM236.053 36.8865C235.79 37.9131 235.102 38.7757 233.953 38.9329C229.882 39.4889 229.473 32.3336 233.151 31.827C236.059 31.4278 236.558 34.9072 236.053 36.8865ZM200.391 36.1576C200.729 35.8182 200.659 35.305 200.659 34.8736C200.653 33.6875 200.322 32.4788 199.769 31.423C197.95 27.9541 193.196 27.1724 189.728 28.7061C185.549 30.5603 184.252 36.2424 186.891 39.762C188.414 41.7922 191.13 42.8001 193.689 42.8293C195.538 42.8504 197.493 42.6548 199.155 41.8075C200.258 41.2477 200.604 39.9058 199.902 38.8994C199.018 37.6365 197.45 38.526 196.297 38.7556C194.738 39.0642 192.608 39.2023 191.442 37.9409C191.049 37.5148 190.931 37.0159 190.731 36.5031H197.751C198.498 36.5031 199.818 36.7327 200.391 36.1576ZM190.681 34.011C190.926 33.0592 191.182 32.2123 192.135 31.6846C193.087 31.156 194.692 31.2097 195.485 32.0024C195.996 32.5253 196.196 33.3112 196.196 34.011H190.681ZM159.634 30.1769C157.988 28.4516 155.005 27.6939 152.623 27.9924C150.884 28.2119 149.277 28.5144 147.859 29.586C144.294 32.2856 144.33 38.2073 147.659 41.0479C149.535 42.6481 152.361 43.045 154.779 42.7679C155.922 42.6376 157.096 42.3376 158.088 41.7653C162.145 39.4266 162.767 33.4756 159.634 30.1769ZM155.946 37.0303C155.646 37.996 154.974 38.8035 153.876 38.9334C153.575 38.9708 153.224 38.9713 152.924 38.9262C151.033 38.642 150.667 36.8386 150.667 35.305C150.667 33.7713 151.208 32.0824 153.074 31.827C156.013 31.4244 156.564 35.0385 155.946 37.0303ZM145.667 29.8414C145.619 29.4484 145.603 29.0593 145.426 28.6912C145.066 27.9402 144.088 27.9062 143.347 28.0073C141.835 28.2129 139.997 29.0487 139.586 30.6082C139.369 29.9085 139.467 29.274 138.879 28.6931C137.79 27.6158 135.359 27.7988 134.621 29.1705C134.114 30.1117 134.321 31.3573 134.321 32.3815V39.0432C134.321 40.1335 134.152 41.3546 135.082 42.1698C136.324 43.2606 138.921 42.9582 139.563 41.3915C139.831 40.7354 139.786 39.9739 139.786 39.2828V36.1197C139.786 35.2963 139.736 34.5008 140.211 33.7713C141.489 31.8064 145.237 33.4023 145.638 30.752C145.684 30.4477 145.703 30.1457 145.667 29.8414Z" fill="white"/>
</g>
<defs>
<clipPath id="clip0_1609_925">
<rect width="241.371" height="48" fill="white" transform="translate(0.314453)"/>
</clipPath>
</defs>
</svg>
