<svg width="228" height="48" viewBox="0 0 228 48" fill="none" xmlns="http://www.w3.org/2000/svg">
<g clip-path="url(#clip0_1609_2525)">
<path d="M37.182 0.550781C36.2526 0.676546 35.3321 0.974535 34.5412 1.48557C33.8047 1.96142 33.1591 2.571 32.6705 3.29931C30.2759 6.87235 32.1231 11.9227 36.3332 13.0259C37.1235 13.2329 37.9766 13.2864 38.7853 13.1878C39.6813 13.0775 40.5537 12.7791 41.3318 12.3098C42.0391 11.8875 42.6489 11.3272 43.1412 10.6674C45.8574 7.02909 43.8193 1.6639 39.3984 0.655429C38.7042 0.497284 37.8894 0.45505 37.182 0.550781Z" fill="#EF7A19"/>
<path d="M0.918929 18.9735H0.966085C1.50839 17.8322 2.53027 16.8026 3.41823 15.9232C4.13501 15.2193 4.97392 14.5539 5.87037 14.0827C6.58809 13.7054 7.33222 13.3892 8.13389 13.2226C11.7362 12.5013 14.4057 14.9847 16.7164 17.331C18.3013 18.9472 19.8664 20.5803 21.432 22.2115C22.7769 23.609 24.1138 25.0271 25.4875 26.388C25.8888 26.7873 26.2647 27.2088 26.6664 27.6081C26.8036 27.7489 27.0748 27.9366 27.1281 28.1243C27.1672 28.2651 26.9918 28.3744 26.9017 28.4551C26.6056 28.7203 26.3052 28.9812 26.0058 29.2506C24.7481 30.3449 23.497 31.4561 22.2332 32.5486C20.8902 33.7115 19.5613 34.8917 18.2249 36.062C17.3671 36.8134 16.5834 37.6243 15.5842 38.1935C13.9653 39.1156 12.012 39.5849 10.1611 39.7153C8.6809 39.812 7.13983 39.6604 5.68127 39.4188C5.14652 39.3301 4.61883 39.1522 4.07795 39.1053C4.21942 39.6215 4.5896 40.11 4.87065 40.56C5.66052 41.8271 6.63997 43.0017 7.75616 43.9937C12.1167 47.8685 18.2169 48.4598 23.5065 46.1242C25.6898 45.1598 27.7378 43.4709 29.5897 41.9965C30.8629 40.9828 32.1088 39.8838 33.2679 38.7303C33.7677 38.2329 34.4223 37.6989 34.7769 37.0879H34.824C35.148 37.544 35.6719 37.911 36.0973 38.2737C36.9211 38.9767 37.7614 39.6562 38.6437 40.2855C42.9751 43.3761 48.4051 45.6113 53.7338 43.8454C55.2999 43.3292 56.7269 42.4855 57.9779 41.4179C58.4311 41.0312 59.046 40.5455 59.2983 39.9974C58.4877 40.0443 57.7247 40.2559 56.8933 40.1771C54.7123 39.9706 52.7435 39.0724 50.8101 38.1203C50.5743 38.0001 50.3032 38.0264 50.0556 37.9373C49.7019 37.8214 49.3454 37.6252 49.0182 37.4487C47.4455 36.6003 46.0167 35.3544 44.7269 34.1333C43.8465 33.2999 42.9821 32.4571 42.1333 31.5974C41.9716 31.4346 41.3175 30.962 41.3887 30.71C41.4731 30.3989 42.1644 30.0554 42.4163 29.8672C43.4537 29.0905 44.5383 28.3763 45.6701 27.7362C47.6978 26.5874 49.7623 25.9319 52.0362 25.4795C54.4412 24.9999 57.0305 25.0022 59.2983 26.075C59.9538 26.3885 60.5904 26.8469 61.086 27.3739C61.3501 27.6555 61.5486 28.022 61.8448 28.2656C61.4892 26.5522 60.7903 24.9229 59.9689 23.3851C59.3337 22.1955 58.4966 21.0632 57.553 20.1002C56.8707 19.4057 56.0789 18.7863 55.2428 18.2794C49.867 15.0508 43.2934 17.2072 38.2193 19.9449C37.0064 20.5995 35.7313 21.2795 34.6354 22.1181C34.4378 21.4963 33.9908 20.898 33.6546 20.3349C32.959 19.1814 32.2229 18.05 31.4288 16.9561C28.1278 12.3666 23.7125 7.51058 17.9891 6.0868C13.7394 5.03657 9.29158 6.31111 6.10568 9.26425C4.4967 10.7617 3.26497 12.6716 2.36569 14.6567C1.77859 15.9523 1.03588 17.5422 0.918457 18.974L0.918929 18.9735Z" fill="#EF7A19"/>
<path d="M8.69963 13.1273C6.14138 13.4741 3.98397 15.0781 2.36131 17.0021C1.86192 17.5878 1.18475 18.2874 0.918792 19.02C0.541539 20.0815 0.588696 21.3387 0.486366 22.4457C0.211443 25.2923 0.298683 28.2046 0.717433 31.0334C1.03433 33.1723 1.63604 35.3408 2.71074 37.2278C3.05168 37.8097 3.46147 38.6168 4.00425 39.0302C4.44044 39.3625 5.4312 39.3766 5.96454 39.4535C7.78432 39.7159 9.70453 39.8923 11.529 39.5525C13.0371 39.2719 14.547 38.8702 15.8674 38.0523C16.1683 37.866 16.9379 37.4976 17.0298 37.1334C17.0935 36.8608 16.3338 36.1799 16.1603 35.9603C15.3157 34.8927 14.5876 33.7101 13.9934 32.4876C12.4241 29.2595 11.9063 25.6363 12.9102 22.1636C13.3483 20.6451 14.0726 19.1927 14.9714 17.8933C15.2049 17.5648 15.443 17.2363 15.6986 16.9078C15.7972 16.7806 15.9726 16.6154 15.907 16.4385C15.7217 15.9387 14.9078 15.43 14.4999 15.1058C12.9083 13.8406 10.7943 12.8429 8.69963 13.1264V13.1273Z" fill="#F59E1F"/>
<path d="M52.0836 25.4495C53.1677 28.7654 54.0642 33.4572 51.5507 36.3836C51.0405 36.9758 50.4412 37.3991 49.7729 37.7914C50.0087 38.026 50.3261 37.9678 50.6218 38.0565C50.9519 38.1579 51.2952 38.4014 51.6121 38.5539C53.4012 39.4442 55.4317 40.1847 57.4595 40.1847C57.9777 40.1847 58.9406 40.2785 59.3679 39.9219C59.9116 39.4657 60.2643 38.3451 60.5246 37.6975C61.4112 35.4919 61.8818 33.2169 61.9393 30.8462C61.9591 30.0634 62.1496 28.7565 61.6889 28.0775C59.723 25.1844 55.2549 24.633 52.0836 25.4495Z" fill="#F59E1F"/>
<path d="M174.03 37.2639C172.798 36.3286 171.553 37.2967 170.305 37.6083C168.034 38.1761 165.239 37.7754 163.98 35.5857C162.665 33.298 162.835 29.4064 164.93 27.6222C165.896 26.7991 167.177 26.5185 168.419 26.488C169.253 26.4673 170.186 26.6316 170.966 26.9239C171.908 27.2796 172.82 27.9188 173.795 27.243C175.021 26.3885 175.159 24.3589 173.984 23.4067C172.805 22.4527 170.966 22.1256 169.504 21.9768C168.985 21.914 168.418 21.8361 167.9 21.9027C167.24 21.989 166.579 21.9684 165.92 22.0824C164.053 22.4053 162.195 23.15 160.78 24.425C156.64 28.1464 156.487 35.8518 160.544 39.7153C163.53 42.5554 168.639 43.2039 172.428 41.7238C173.113 41.4559 173.911 41.1382 174.393 40.56C175.159 39.6393 174.997 37.9973 174.03 37.2639ZM79.3404 26.2942C80.2081 26.2942 81.1795 26.4138 82.0283 26.2003C83.2969 25.862 83.6901 24.1153 83.0615 23.0562C82.5758 22.2387 81.6879 22.2584 80.8494 22.2584H72.3141C71.3573 22.2584 70.4278 22.2584 69.7205 23.0092C68.759 24.0435 69.1074 25.9877 69.1074 27.2796V37.4159C69.1074 38.7167 68.7896 40.522 69.7115 41.5924C70.7579 42.8046 73.3893 42.7041 74.0914 41.1701C74.4456 40.3958 74.3418 39.5103 74.3418 38.6829V34.2249H79.1518C79.9516 34.2249 80.8909 34.3656 81.6511 34.0733C82.913 33.5951 83.0455 31.3778 82.0283 30.5894C81.3828 30.0953 80.434 30.236 79.6705 30.236H74.3418V26.2942H79.3404ZM110.167 39.0114C110.051 38.3249 109.508 38.0964 108.86 38.1804C107.906 38.3075 106.755 38.5975 106.056 37.6975C105.636 37.1569 105.654 36.3835 105.654 35.7265V31.9724C106.68 31.9724 108.17 32.2361 109.096 31.7128C110.194 31.0925 110.228 29.0722 109.096 28.4678C108.148 27.9619 106.691 28.2182 105.654 28.2182C105.654 27.19 105.87 25.9047 105.324 24.9802C104.507 23.5724 101.89 23.5386 100.985 24.8863C100.372 25.8061 100.608 27.1717 100.608 28.2182C99.3669 28.2182 97.8583 28.2266 97.7315 29.8137H97.6843C97.5259 27.8897 94.6823 27.3735 93.3931 28.5138C92.7121 29.1225 92.6857 30.053 92.6857 30.893V35.445C92.6857 36.6533 92.4028 37.9176 91.1296 38.4014C89.8082 38.896 88.7656 38.0846 88.6383 36.7589C88.4808 35.1169 88.6303 33.3881 88.6303 31.7377C88.6303 30.94 88.7383 30.0568 88.4317 29.2975C87.7475 27.6081 84.8577 27.4326 83.9146 28.969C83.345 29.8977 83.5374 31.2131 83.5374 32.2539C83.5374 33.8138 83.4732 35.398 83.5803 36.9466C83.6788 38.385 83.8792 39.8477 84.8714 40.9824C86.6869 43.0589 91.4384 43.0993 92.7801 40.4193H92.8272C92.9215 42.6427 96.6403 43.1692 97.5183 41.217C97.9795 40.1917 97.7786 38.8397 97.7786 37.7444V30.7522H97.8258C98.0144 32.0446 99.6314 31.9724 100.608 31.9724V35.7265C100.608 37.5487 100.655 39.4901 102.023 40.8885C103.42 42.3118 105.701 42.5544 107.587 42.3902C108.766 42.287 109.879 41.9411 110.15 40.6539C110.215 40.3423 110.228 40.0326 110.228 39.7153C110.228 39.4807 110.207 39.2465 110.167 39.0114ZM212.403 39.0114C212.287 38.3249 211.744 38.0964 211.096 38.1804C210.136 38.3075 208.995 38.5938 208.285 37.6975C207.872 37.1813 207.889 36.4028 207.889 35.7735V31.9724C208.913 31.9724 210.408 32.238 211.332 31.7128C212.426 31.0901 212.462 29.0713 211.332 28.4678C210.384 27.9619 208.927 28.2182 207.889 28.2182C207.889 27.19 208.105 25.9047 207.559 24.9802C206.741 23.5724 204.125 23.5395 203.221 24.8863C202.608 25.8061 202.844 27.1717 202.844 28.2182C201.9 28.2182 201.033 28.1558 200.297 28.8282C200.134 27.9366 199.109 27.816 198.364 27.9169C196.683 28.1445 195.581 28.9249 194.733 30.3768C194.555 29.6363 194.559 29.0159 193.931 28.4613C192.788 27.4673 190.524 27.8531 189.97 29.2975C189.545 30.4012 189.781 31.8414 189.781 33.0048V37.8383C189.781 38.6478 189.686 39.5276 189.801 40.3254C189.894 40.9692 190.136 41.5361 190.677 41.9322C191.823 42.7703 194.041 42.5488 194.661 41.1701C194.967 40.4901 194.921 39.7374 194.921 39.0114V35.8673C194.921 35.0949 194.874 34.3032 195.295 33.6148C195.92 32.5909 197.171 32.3947 198.269 32.3051C198.99 32.2539 199.964 32.0686 200.203 31.2684C200.439 31.436 200.64 31.6443 200.91 31.7696C201.498 32.0418 202.213 31.9724 202.844 31.9724V35.7265C202.844 37.5567 202.891 39.4882 204.258 40.8885C205.665 42.3217 208.151 42.6591 210.058 42.3625C211.174 42.1894 212.131 41.8768 212.385 40.6539C212.449 40.3456 212.463 40.0293 212.463 39.7153C212.463 39.4807 212.443 39.2465 212.403 39.0114Z" fill="#2849A5"/>
<path d="M124.564 32.3008C124.564 31.381 124.734 30.2688 124.418 29.3913C123.884 27.9098 121.714 27.4978 120.461 28.3288C119.548 28.9351 119.518 29.9596 119.518 30.9399C119.518 32.618 119.72 34.4392 119.498 36.1019C119.322 37.4187 118.433 38.7298 116.924 38.5285C115.568 38.3544 115.462 37.1132 115.462 36.008V31.7846C115.462 30.9868 115.557 30.1064 115.271 29.3443C114.661 27.7563 112.114 27.4316 110.983 28.6404C110.392 29.2763 110.37 30.121 110.37 30.9399V33.9432C110.37 36.8996 110.017 41.1991 113.671 42.2024C114.253 42.354 114.86 42.4371 115.462 42.4371C116.185 42.4371 116.854 42.3709 117.537 42.1226C118.48 41.781 118.925 41.0611 119.659 40.4661C119.754 42.6257 123.371 43.141 124.29 41.3108C124.767 40.3638 124.564 39.1052 124.564 38.0728V32.3008ZM225.856 30.5175C224.324 28.5067 221.353 27.586 218.877 27.9093C217.349 28.1092 215.917 28.3617 214.633 29.2857C211.049 31.8606 210.971 37.8954 214.255 40.7341C216.127 42.3516 218.865 42.6717 221.235 42.3301C222.885 42.0964 224.497 41.3591 225.607 40.0907C227.822 37.5571 227.893 33.1774 225.856 30.5175ZM222.03 36.6181C221.784 37.6233 221.137 38.4679 220.056 38.6219C216.227 39.1662 215.842 32.16 219.301 31.664C222.036 31.2731 222.506 34.68 222.03 36.6181ZM188.492 35.9043C188.81 35.5721 188.744 35.0695 188.744 34.6471C188.738 33.4857 188.427 32.3022 187.907 31.2684C186.196 27.8718 181.725 27.1064 178.464 28.6081C174.533 30.4237 173.314 35.9874 175.796 39.4337C177.228 41.4215 179.782 42.4084 182.189 42.4371C183.928 42.4577 185.766 42.2662 187.329 41.4366C188.367 40.8885 188.692 39.5745 188.032 38.589C187.2 37.3525 185.726 38.2235 184.641 38.4482C183.176 38.7504 181.172 38.8856 180.075 37.6505C179.706 37.2333 179.595 36.7448 179.407 36.2427H186.009C186.711 36.2427 187.952 36.4674 188.492 35.9043ZM179.36 33.8024C179.59 32.8705 179.831 32.0413 180.727 31.5246C181.623 31.007 183.132 31.0595 183.878 31.8357C184.358 32.3477 184.546 33.1173 184.547 33.8024H179.36ZM150.162 30.0483C148.614 28.3589 145.808 27.617 143.568 27.9093C141.933 28.1242 140.422 28.4204 139.088 29.4696C135.735 32.1131 135.769 37.9114 138.899 40.6928C140.663 42.2597 143.322 42.6482 145.596 42.377C146.67 42.2493 147.775 41.9556 148.708 41.3953C152.523 39.1052 153.108 33.2783 150.162 30.0483ZM146.693 36.7589C146.411 37.7044 145.779 38.4952 144.747 38.6223C144.463 38.6589 144.133 38.6594 143.851 38.6153C142.072 38.337 141.729 36.5711 141.729 35.0695C141.729 33.5678 142.238 31.9141 143.992 31.664C146.756 31.2698 147.275 34.8086 146.693 36.7589ZM137.026 29.7198C136.981 29.335 136.966 28.9539 136.8 28.5935C136.461 27.8582 135.541 27.8248 134.844 27.9239C133.422 28.1252 131.694 28.9436 131.307 30.4706C131.103 29.7855 131.195 29.1641 130.643 28.5954C129.618 27.5405 127.332 27.7197 126.638 29.0628C126.161 29.9844 126.356 31.2041 126.356 32.2069V38.7298C126.356 39.7974 126.197 40.9931 127.071 41.7913C128.24 42.8594 130.682 42.5633 131.285 41.0292C131.538 40.3868 131.496 39.6411 131.496 38.9644V35.8672C131.496 35.061 131.449 34.282 131.895 33.5678C133.097 31.6438 136.622 33.2065 136.999 30.6114C137.042 30.3134 137.06 30.0178 137.026 29.7198Z" fill="#2849A5"/>
</g>
<defs>
<clipPath id="clip0_1609_2525">
<rect width="227" height="47" fill="white" transform="translate(0.328125 0.5)"/>
</clipPath>
</defs>
</svg>
