<svg width="33" height="32" viewBox="0 0 33 32" fill="none" xmlns="http://www.w3.org/2000/svg">
<circle cx="16.3145" cy="16" r="15.5" stroke="white"/>
<path d="M23.9795 11.7599C23.8931 11.4148 23.7172 11.0985 23.4695 10.8432C23.2217 10.5878 22.911 10.4023 22.5687 10.3054C21.3178 10 16.3145 10 16.3145 10C16.3145 10 11.3111 10 10.0602 10.3345C9.71788 10.4314 9.40716 10.6169 9.15944 10.8723C8.91172 11.1276 8.73578 11.4439 8.6494 11.789C8.42047 13.0584 8.3085 14.3462 8.31487 15.6361C8.30671 16.9357 8.41869 18.2332 8.6494 19.5122C8.74464 19.8467 8.92451 20.1509 9.17166 20.3954C9.4188 20.64 9.72485 20.8168 10.0602 20.9085C11.3111 21.2431 16.3145 21.2431 16.3145 21.2431C16.3145 21.2431 21.3178 21.2431 22.5687 20.9085C22.911 20.8117 23.2217 20.6262 23.4695 20.3708C23.7172 20.1154 23.8931 19.7992 23.9795 19.4541C24.2067 18.1942 24.3186 16.9162 24.314 15.6361C24.3222 14.3365 24.2102 13.0389 23.9795 11.7599Z" fill="white"/>
<path d="M14.6787 18.0142L18.8602 15.6361L14.6787 13.2581V18.0142Z" fill="#202934"/>
</svg>
